<?xml version="1.0" standalone="no"?>
<!DOCTYPE svg PUBLIC "-//W3C//DTD SVG 20010904//EN"
 "http://www.w3.org/TR/2001/REC-SVG-20010904/DTD/svg10.dtd">
<svg version="1.0" xmlns="http://www.w3.org/2000/svg"
 width="368.000000pt" height="368.000000pt" viewBox="0 0 368.000000 368.000000"
 preserveAspectRatio="xMidYMid meet">
<metadata>
Created by potrace 1.14, written by Peter Selinger 2001-2017
</metadata>
<g transform="translate(0.000000,368.000000) scale(0.100000,-0.100000)"
fill="#000000" stroke="none">
<path d="M2695 3293 c-239 -14 -366 -42 -998 -219 -410 -114 -641 -151 -877
-140 -319 15 -560 104 -796 296 -7 5 -15 6 -18 3 -3 -4 -6 -581 -6 -1283 l0
-1276 47 -36 c238 -181 608 -276 965 -248 216 16 388 50 695 136 648 181 779
210 1011 221 321 15 564 -67 783 -263 78 -70 109 -79 147 -44 11 11 24 35 27
52 3 18 4 572 3 1231 l-3 1199 -68 65 c-137 129 -305 221 -492 268 -86 22
-288 47 -345 43 -14 -1 -47 -3 -75 -5z m385 -188 c132 -32 285 -111 385 -198
l55 -48 0 -235 c0 -130 -3 -234 -7 -232 -66 33 -174 81 -231 102 -75 27 -251
66 -296 66 l-26 0 0 -280 0 -279 38 -6 c181 -30 320 -72 442 -133 l75 -37 3
-286 2 -285 -77 38 c-98 48 -265 102 -363 118 -41 6 -85 14 -97 16 l-23 4 0
285 0 285 -137 0 c-139 0 -274 -11 -370 -31 l-53 -10 0 -280 c0 -316 -9 -288
89 -269 94 18 322 32 397 25 l74 -7 0 -264 0 -264 -167 0 c-93 0 -213 -7 -268
-15 -55 -8 -106 -15 -112 -15 -10 0 -13 58 -13 260 0 227 -2 260 -15 260 -13
0 -420 -102 -510 -128 l-30 -8 -3 -266 -2 -265 -168 -46 c-144 -40 -371 -97
-387 -97 -3 0 -4 120 -3 267 l3 266 105 23 c58 12 180 43 272 68 91 25 169 46
172 46 3 0 7 129 8 287 l3 286 155 43 c85 24 210 55 278 70 l122 28 0 282 c0
260 1 283 18 288 52 16 272 36 398 36 l144 0 0 281 0 281 33 -7 c17 -3 57 -12
87 -20z m-680 -290 l0 -284 -37 -10 c-21 -5 -63 -14 -93 -21 -30 -6 -139 -34
-242 -62 l-188 -51 -2 -285 -3 -285 -139 -38 c-76 -21 -201 -53 -277 -71
l-139 -32 0 -282 0 -282 -22 -5 c-71 -18 -278 -37 -399 -37 l-139 0 0 -260 0
-260 -22 0 c-44 0 -234 48 -313 79 -44 17 -111 48 -150 69 l-70 37 -3 258 c-1
143 1 257 5 255 69 -35 174 -81 231 -102 75 -27 251 -66 296 -66 l26 0 0 280
0 280 -22 4 c-13 2 -57 10 -98 16 -95 15 -262 70 -360 118 l-75 37 -3 287 -2
287 87 -44 c104 -51 249 -98 353 -115 41 -6 85 -14 98 -16 l22 -4 0 -285 0
-285 139 0 c121 0 328 19 399 37 l22 5 0 279 c0 242 -2 279 -15 279 -8 0 -59
-6 -113 -14 -139 -20 -291 -29 -367 -21 l-65 7 0 284 0 284 163 0 c89 0 212 7
272 15 61 8 113 15 118 15 4 0 7 -126 7 -280 0 -217 3 -280 13 -280 15 0 342
81 457 113 l85 24 3 285 2 284 108 29 c258 68 438 114 445 115 4 0 7 -128 7
-285z"/>
</g>
</svg>
